<svg width="25px" height="25px" viewBox="0 0 25 25" xmlns="http://www.w3.org/2000/svg" xmlns:xlink= "http://www.w3.org/1999/xlink">
  <path d="M21.6971 15.2971C21.086 14.686 20.2748 14.3499 19.4137 14.3499C18.5525 14.3499 17.7414 14.686 17.1303 15.2971L16.0886 16.3416C15.5469 16.8802 14.6913 16.9497 14.0524 16.5027C12.9857 15.7552 11.969 14.9027 11.0328 13.9665C10.0967 13.0304 9.24386 12.0162 8.49661 10.947C8.04937 10.308 8.11882 9.45245 8.66051 8.91076L9.70221 7.86906C10.3133 7.25764 10.6495 6.4465 10.6495 5.58563C10.6495 4.72421 10.3133 3.91307 9.70221 3.30193L7.34379 0.943787C6.08541 -0.314596 4.03811 -0.314596 2.77973 0.943787L1.7047 2.01855C0.410203 3.31305 -0.203709 5.12701 0.0601899 6.8743C0.429648 9.32995 1.34357 11.8387 2.70195 14.1329C3.67977 15.786 4.87981 17.3333 6.27431 18.725C7.66603 20.1193 9.21331 21.3193 10.8661 22.2943C13.1607 23.6558 15.6691 24.5697 18.1275 24.9392C18.3914 24.9806 18.6609 25 18.9276 25C20.4137 25 21.8832 24.3916 22.9805 23.2947L24.0555 22.2196C24.6639 21.611 25 20.7998 25 19.9359C25 19.0748 24.6639 18.2636 24.0555 17.6553L21.6971 15.2971Z" id="Fill-1" fill="#D31144" stroke="none" />
</svg>