
<svg version="1.0" xmlns="http://www.w3.org/2000/svg"
 width="713.000000pt" height="713.000000pt" viewBox="0 0 713.000000 713.000000"
 preserveAspectRatio="xMidYMid meet">

<g transform="translate(0.000000,713.000000) scale(0.100000,-0.100000)"
fill="#000000 " stroke="none">
<path fill="#d31144" d="M1439 7054 c-170 -30 -340 -110 -481 -223 -100 -81 -419 -407 -500
-511 -164 -212 -272 -446 -330 -717 -20 -96 -23 -134 -22 -338 0 -208 3 -243
27 -370 154 -789 432 -1464 880 -2135 887 -1325 2280 -2292 3732 -2589 282
-57 346 -65 520 -65 303 0 575 72 835 219 156 88 254 168 488 400 296 291 356
374 426 585 111 335 53 690 -158 970 -37 50 -212 231 -422 440 -375 372 -447
432 -597 500 -274 124 -610 124 -884 0 -128 -58 -227 -135 -432 -335 -180
-176 -201 -193 -244 -203 -87 -18 -119 -4 -313 141 -404 303 -794 687 -1095
1077 -162 209 -199 272 -199 335 0 68 27 105 218 299 197 201 256 277 323 421
67 143 91 255 93 425 1 161 -11 238 -56 370 -39 110 -96 214 -168 303 -86 108
-776 788 -845 834 -125 83 -271 143 -415 169 -95 17 -283 16 -381 -2z m101
-453 c0 -38 41 -87 80 -95 48 -9 98 17 116 60 8 20 13 43 10 50 -3 8 1 14 9
14 31 0 177 -60 227 -94 29 -19 218 -201 419 -403 377 -380 399 -407 443 -531
l15 -40 -29 10 c-21 7 -40 6 -64 -2 -105 -34 -80 -200 31 -200 21 0 49 7 61
16 21 15 22 14 22 -13 0 -45 -27 -157 -50 -211 -17 -40 -27 -51 -51 -56 -50
-10 -79 -48 -79 -103 0 -44 -4 -53 -43 -91 -37 -36 -47 -41 -74 -36 -35 7 -87
-16 -103 -45 -5 -11 -10 -39 -10 -63 0 -38 -5 -49 -43 -86 -38 -37 -48 -42
-90 -42 -37 0 -53 -5 -72 -24 -43 -43 -45 -106 -5 -146 17 -17 18 -21 3 -67
-14 -41 -21 -131 -26 -335 -1 -29 6 -45 29 -70 17 -18 44 -55 59 -83 39 -69
255 -353 383 -505 137 -162 532 -557 692 -691 355 -299 524 -412 667 -449 40
-10 42 -12 36 -40 -16 -83 71 -145 151 -109 31 14 60 72 52 104 -6 24 8 35 44
35 40 0 163 50 227 93 41 27 138 116 241 221 187 191 245 235 366 277 l80 28
17 -29 c36 -58 111 -69 158 -22 15 15 30 34 33 42 4 12 14 11 73 -5 38 -10
101 -34 139 -53 65 -32 105 -69 457 -421 344 -344 389 -394 421 -456 20 -38
39 -81 43 -93 6 -21 5 -23 -13 -13 -37 20 -98 13 -129 -13 -24 -21 -28 -32
-28 -74 0 -59 20 -87 73 -102 42 -11 91 6 117 41 17 23 17 21 11 -64 -4 -53
-17 -120 -32 -166 l-26 -78 -41 0 c-33 0 -46 -6 -69 -32 -30 -34 -37 -85 -17
-123 10 -18 6 -26 -29 -60 -34 -35 -42 -39 -60 -29 -11 6 -38 11 -60 11 -72 0
-118 -73 -89 -143 15 -34 15 -35 -22 -71 l-36 -35 -42 14 c-46 16 -81 9 -115
-22 -23 -20 -33 -78 -20 -107 9 -20 5 -26 -47 -58 -31 -19 -74 -38 -95 -41
-23 -4 -52 -18 -70 -35 -37 -34 -59 -44 -157 -70 -136 -37 -129 -37 -129 1 0
70 -84 116 -150 82 -39 -20 -61 -67 -50 -107 8 -28 8 -28 -33 -28 -40 0 -154
14 -208 26 -22 4 -27 12 -32 47 -14 100 -149 122 -192 31 -14 -30 -20 -33 -43
-28 -77 17 -271 69 -374 101 -114 35 -117 37 -103 57 8 11 15 40 15 64 0 126
-182 142 -205 18 -4 -20 -9 -36 -11 -36 -12 0 -230 91 -351 147 -124 57 -143
68 -143 89 0 37 -22 74 -51 90 -36 18 -60 18 -102 -2 -33 -16 -35 -15 -78 11
-24 15 -46 29 -48 31 -2 2 9 13 23 26 19 16 29 36 33 65 5 39 2 46 -30 78 -48
48 -95 49 -143 1 -19 -19 -34 -43 -34 -55 0 -12 -3 -21 -6 -21 -14 0 -304 198
-439 300 -298 225 -556 458 -802 725 -185 201 -334 388 -507 635 -105 150
-120 176 -82 140 21 -19 39 -25 73 -25 38 0 49 5 74 33 42 47 40 93 -6 139
-32 32 -40 35 -77 30 -59 -8 -93 -45 -93 -102 0 -25 -1 -45 -2 -45 -3 0 -113
180 -113 185 0 3 6 5 14 5 7 0 25 12 40 26 20 21 26 36 26 71 0 82 -78 128
-150 89 -24 -14 -25 -13 -53 37 -22 39 -29 64 -28 98 2 48 -23 92 -58 104 -11
3 -35 41 -59 94 -45 96 -162 388 -162 404 0 5 11 22 25 39 37 44 34 91 -9 134
-21 21 -44 34 -60 34 -27 0 -37 24 -85 217 -24 93 -25 104 -8 82 59 -77 187
-32 187 66 0 118 -162 141 -205 30 -9 -24 -11 -19 -28 72 -8 40 -10 78 -6 85
17 26 9 82 -17 120 -24 35 -26 45 -28 161 -1 121 0 124 26 156 30 35 36 82 16
125 -9 21 -7 39 7 92 l18 65 17 -40 c22 -47 44 -61 100 -61 91 0 135 106 71
171 -24 23 -38 29 -73 29 -24 0 -54 -7 -67 -17 -36 -25 65 164 144 268 84 111
465 487 530 523 54 30 179 75 208 76 12 0 17 -8 17 -29z"/>
<path fill="#d31144" d="M1347 6469 c-24 -14 -47 -62 -47 -98 0 -20 11 -42 29 -63 25 -28 36
-33 76 -33 40 0 51 5 76 33 33 37 37 77 14 122 -8 16 -24 34 -34 40 -25 13
-91 13 -114 -1z"/>
<path fill="#d31144" d="M1809 6451 c-82 -82 19 -220 115 -158 28 19 46 71 39 111 -7 36 -57
76 -95 76 -19 0 -39 -10 -59 -29z"/>
<path fill="#d31144" d="M1099 6221 c-23 -24 -29 -38 -29 -74 0 -107 128 -145 188 -57 69 102
-72 218 -159 131z"/>
<path fill="#d31144" d="M1579 6221 c-23 -23 -29 -38 -29 -71 0 -52 13 -76 51 -95 63 -33 129
16 129 95 0 53 -42 100 -90 100 -22 0 -41 -9 -61 -29z"/>
<path fill="#d31144" d="M2051 6236 c-69 -38 -67 -143 4 -181 63 -35 140 4 152 78 13 84 -79
146 -156 103z"/>
<path fill="#d31144" d="M900 6009 c-39 -15 -60 -49 -60 -97 0 -35 6 -49 29 -73 64 -64 171
-20 171 71 0 50 -22 85 -62 99 -37 13 -45 13 -78 0z"/>
<path fill="#d31144" d="M1363 6006 c-69 -31 -80 -121 -22 -170 97 -82 227 50 142 144 -33 36
-76 45 -120 26z"/>
<path fill="#d31144" d="M1834 6011 c-53 -23 -81 -101 -54 -152 14 -25 62 -49 99 -49 37 0 87
41 94 76 7 39 -11 92 -37 109 -29 20 -76 27 -102 16z"/>
<path fill="#d31144" d="M2290 6003 c-47 -24 -66 -78 -46 -127 26 -62 85 -82 146 -51 58 30
69 104 23 155 -36 38 -77 46 -123 23z"/>
<path fill="#d31144" d="M2526 5775 c-42 -22 -55 -44 -56 -93 0 -90 99 -135 168 -77 92 77 -7
227 -112 170z"/>
<path fill="#d31144" d="M1096 5749 c-59 -70 -15 -169 76 -169 54 0 83 19 98 65 9 26 9 44 0
70 -15 46 -44 65 -101 65 -40 0 -51 -4 -73 -31z"/>
<path fill="#d31144" d="M1576 5754 c-58 -59 -16 -174 64 -174 47 0 90 47 90 98 0 90 -93 136
-154 76z"/>
<path fill="#d31144" d="M2029 5751 c-23 -23 -29 -38 -29 -71 0 -118 177 -141 206 -26 3 14 3
38 0 52 -19 76 -120 102 -177 45z"/>
<path fill="#d31144" d="M892 5565 c-66 -29 -77 -122 -20 -170 70 -59 168 -13 168 78 0 35 -6
50 -26 71 -15 14 -32 26 -38 26 -6 0 -20 2 -31 5 -11 3 -35 -2 -53 -10z"/>
<path fill="#d31144" d="M1373 5573 c-32 -6 -73 -59 -73 -94 0 -37 24 -85 49 -99 37 -19 100
-12 126 14 78 78 8 201 -102 179z"/>
<path fill="#d31144" d="M1844 5570 c-66 -26 -85 -120 -35 -171 37 -37 79 -38 119 -4 34 29
44 63 30 111 -13 49 -71 81 -114 64z"/>
<path fill="#d31144" d="M2283 5560 c-58 -35 -64 -121 -11 -165 68 -58 168 -13 168 75 0 52
-13 76 -50 95 -39 20 -69 19 -107 -5z"/>
<path fill="#d31144" d="M635 5316 c-28 -29 -40 -66 -31 -102 19 -76 120 -102 177 -45 23 23
29 38 29 71 0 61 -41 100 -105 100 -35 0 -51 -6 -70 -24z"/>
<path fill="#d31144" d="M1096 5309 c-35 -42 -35 -96 0 -138 22 -27 33 -31 73 -31 57 0 86 19
101 65 9 26 9 44 0 70 -15 46 -44 65 -101 65 -40 0 -51 -4 -73 -31z"/>
<path fill="#d31144" d="M1576 5314 c-21 -21 -26 -36 -26 -74 0 -42 4 -52 31 -74 41 -35 83
-34 120 3 22 23 29 39 29 69 0 90 -93 136 -154 76z"/>
<path fill="#d31144" d="M2029 5311 c-23 -23 -29 -38 -29 -71 0 -118 177 -141 206 -26 3 14 3
38 0 52 -19 76 -120 102 -177 45z"/>
<path fill="#d31144" d="M2497 5312 c-21 -22 -27 -38 -27 -72 0 -63 37 -100 100 -100 98 0
142 106 72 175 -37 37 -108 36 -145 -3z"/>
<path fill="#d31144" d="M870 5082 c-55 -55 -35 -149 36 -172 72 -24 134 22 134 99 0 57 -32
91 -92 98 -42 5 -50 3 -78 -25z"/>
<path fill="#d31144" d="M1341 5084 c-78 -65 -32 -179 72 -179 31 0 45 7 68 33 86 96 -41 229
-140 146z"/>
<path fill="#d31144" d="M1818 5094 c-55 -29 -65 -102 -23 -152 32 -38 72 -48 118 -28 43 17
60 46 60 100 0 76 -84 119 -155 80z"/>
<path fill="#d31144" d="M2269 5082 c-26 -23 -32 -36 -32 -68 0 -54 17 -83 60 -100 46 -20 86
-10 118 28 43 51 32 124 -25 153 -45 23 -85 19 -121 -13z"/>
<path fill="#d31144" d="M1125 4869 c-37 -21 -55 -53 -55 -97 0 -90 99 -135 168 -77 17 14 33
38 37 54 7 32 -13 88 -38 109 -22 19 -88 25 -112 11z"/>
<path fill="#d31144" d="M1598 4864 c-36 -19 -48 -43 -48 -94 0 -33 6 -48 29 -71 33 -33 58
-36 101 -14 37 19 50 43 50 92 0 40 -21 73 -57 92 -28 14 -42 13 -75 -5z"/>
<path fill="#d31144" d="M2051 4867 c-68 -40 -66 -153 4 -185 48 -22 84 -15 122 23 32 32 35
40 30 77 -3 25 -15 51 -30 65 -29 30 -92 39 -126 20z"/>
<path fill="#d31144" d="M866 4609 c-59 -69 -15 -169 74 -169 60 0 100 41 100 102 0 62 -38
98 -102 98 -39 0 -50 -5 -72 -31z"/>
<path fill="#d31144" d="M1347 4629 c-52 -30 -58 -121 -10 -165 30 -28 96 -33 129 -9 51 35
55 127 7 165 -28 22 -95 27 -126 9z"/>
<path fill="#d31144" d="M1799 4611 c-92 -92 39 -230 139 -146 34 29 44 63 30 111 -12 44 -42
64 -96 64 -35 0 -49 -6 -73 -29z"/>
<path fill="#d31144" d="M1117 4399 c-23 -14 -47 -62 -47 -96 0 -64 68 -110 134 -92 45 12 71
50 71 102 0 31 -7 45 -33 68 -34 31 -89 39 -125 18z"/>
<path fill="#d31144" d="M1569 4381 c-40 -40 -41 -106 -3 -145 42 -41 106 -39 147 4 61 67 17
170 -73 170 -33 0 -48 -6 -71 -29z"/>
<path fill="#d31144" d="M2049 4395 c-51 -28 -63 -120 -20 -159 48 -44 129 -36 161 17 24 39
25 59 5 102 -25 52 -91 70 -146 40z"/>
<path fill="#d31144" d="M888 4164 c-36 -19 -48 -43 -48 -94 0 -30 6 -47 24 -65 67 -67 176
-27 176 65 0 52 -13 76 -50 95 -36 19 -67 19 -102 -1z"/>
<path fill="#d31144" d="M1365 4171 c-39 -17 -60 -51 -60 -97 0 -56 34 -93 93 -101 37 -5 45
-2 77 30 27 27 35 43 35 71 0 68 -83 124 -145 97z"/>
<path fill="#d31144" d="M1821 4167 c-100 -58 -41 -214 72 -193 82 15 110 124 47 181 -25 22
-89 29 -119 12z"/>
<path fill="#d31144" d="M1134 3940 c-32 -13 -64 -59 -64 -92 0 -92 100 -141 168 -83 39 32
48 72 28 119 -11 26 -26 41 -50 51 -40 17 -52 17 -82 5z"/>
<path fill="#d31144" d="M1593 3935 c-39 -17 -53 -42 -53 -94 0 -28 7 -48 24 -68 21 -24 32
-28 76 -28 44 0 55 4 76 28 47 55 26 142 -43 168 -31 12 -41 11 -80 -6z"/>
<path fill="#d31144" d="M2065 3941 c-34 -15 -56 -47 -62 -90 -5 -36 -2 -44 30 -76 27 -27 43
-35 72 -35 29 0 45 8 72 35 32 32 35 40 30 77 -3 24 -15 51 -29 65 -26 26 -81
38 -113 24z"/>
<path fill="#d31144" d="M1335 3687 c-35 -29 -45 -96 -21 -133 36 -54 118 -63 167 -18 41 37
32 127 -15 159 -32 23 -100 19 -131 -8z"/>
<path fill="#d31144" d="M1799 3681 c-57 -57 -29 -159 47 -174 39 -7 92 11 108 36 29 44 24
106 -10 141 -39 38 -105 37 -145 -3z"/>
<path fill="#d31144" d="M2268 3687 c-34 -32 -43 -76 -24 -120 17 -43 46 -60 100 -60 87 0
130 111 67 174 -39 38 -105 41 -143 6z"/>
<path fill="#d31144" d="M1569 3451 c-23 -24 -29 -38 -29 -73 0 -24 7 -53 15 -65 38 -54 147
-46 174 14 34 75 -11 153 -89 153 -33 0 -48 -6 -71 -29z"/>
<path fill="#d31144" d="M2049 3465 c-58 -32 -62 -127 -6 -169 58 -43 143 -13 161 57 23 90
-71 158 -155 112z"/>
<path fill="#d31144" d="M2499 3451 c-21 -22 -29 -39 -29 -66 0 -85 68 -133 145 -101 41 17
55 42 55 96 0 58 -42 100 -100 100 -33 0 -48 -6 -71 -29z"/>
<path fill="#d31144" d="M1821 3227 c-76 -45 -64 -163 19 -188 35 -11 46 -10 76 4 64 31 77
124 25 171 -26 23 -90 30 -120 13z"/>
<path fill="#d31144" d="M2294 3230 c-57 -23 -74 -121 -30 -165 67 -67 176 -27 176 65 0 52
-13 76 -50 95 -32 17 -64 18 -96 5z"/>
<path fill="#d31144" d="M2751 3227 c-80 -47 -58 -175 33 -193 100 -18 162 112 86 181 -25 22
-89 29 -119 12z"/>
<path fill="#d31144" d="M1598 2994 c-36 -19 -48 -43 -48 -94 0 -53 42 -100 90 -100 48 0 90
47 90 100 0 50 -22 85 -62 99 -38 13 -37 14 -70 -5z"/>
<path fill="#d31144" d="M2064 3001 c-67 -29 -85 -121 -35 -172 73 -72 196 -7 177 94 -12 62
-85 102 -142 78z"/>
<path fill="#d31144" d="M2523 2995 c-34 -15 -50 -36 -53 -75 -4 -48 0 -62 29 -91 65 -64 171
-20 171 71 0 54 -14 79 -55 96 -42 17 -51 17 -92 -1z"/>
<path fill="#d31144" d="M3004 2994 c-36 -18 -54 -51 -54 -100 0 -45 45 -94 87 -94 96 0 133
140 50 190 -38 24 -43 24 -83 4z"/>
<path fill="#d31144" d="M1799 2741 c-65 -66 -20 -171 74 -171 69 0 113 55 99 125 -14 75
-116 102 -173 46z"/>
<path fill="#d31144" d="M2269 2741 c-40 -40 -41 -102 -2 -143 39 -40 103 -40 144 1 64 65 20
171 -71 171 -33 0 -48 -6 -71 -29z"/>
<path fill="#d31144" d="M2729 2741 c-64 -64 -20 -171 71 -171 72 0 117 52 103 120 -15 80
-116 109 -174 51z"/>
<path fill="#d31144" d="M3205 2746 c-28 -29 -40 -66 -31 -102 25 -100 177 -100 202 0 9 36
-3 73 -31 102 -18 18 -35 24 -70 24 -35 0 -52 -6 -70 -24z"/>
<path fill="#d31144" d="M5067 2745 c-32 -33 -41 -68 -27 -110 35 -107 200 -78 200 35 0 60
-41 100 -103 100 -34 0 -50 -6 -70 -25z"/>
<path fill="#d31144" d="M5529 2741 c-65 -66 -20 -171 74 -171 69 0 113 55 99 125 -14 75
-116 102 -173 46z"/>
<path fill="#d31144" d="M2059 2525 c-83 -45 -48 -189 46 -189 95 0 129 146 44 189 -35 18
-56 18 -90 0z"/>
<path fill="#d31144" d="M2499 2511 c-23 -23 -29 -38 -29 -71 0 -23 5 -50 10 -61 13 -22 61
-49 90 -49 37 0 81 30 96 65 44 105 -87 196 -167 116z"/>
<path fill="#d31144" d="M2979 2511 c-74 -74 2 -206 96 -167 41 17 58 47 58 100 0 32 -6 45
-32 68 -42 38 -83 37 -122 -1z"/>
<path fill="#d31144" d="M3454 2529 c-56 -29 -68 -117 -23 -165 47 -50 144 -35 169 27 16 37
7 97 -19 122 -22 22 -96 32 -127 16z"/>
<path fill="#d31144" d="M4829 2511 c-50 -51 -36 -136 28 -166 74 -36 148 10 148 92 0 38 -5
49 -33 74 -45 41 -102 41 -143 0z"/>
<path fill="#d31144" d="M5302 2515 c-55 -46 -46 -137 17 -169 38 -20 64 -20 101 -1 37 19 50
43 50 95 0 88 -100 133 -168 75z"/>
<path fill="#d31144" d="M5780 2527 c-56 -28 -67 -108 -21 -159 25 -28 36 -33 74 -33 55 0 93
31 103 82 17 88 -73 152 -156 110z"/>
<path fill="#d31144" d="M2283 2291 c-76 -47 -53 -171 34 -187 98 -18 162 92 96 166 -37 40
-86 48 -130 21z"/>
<path fill="#d31144" d="M2764 2300 c-32 -13 -64 -59 -64 -92 0 -91 100 -141 168 -83 89 74 3
218 -104 175z"/>
<path fill="#d31144" d="M3235 2301 c-34 -15 -56 -47 -62 -90 -5 -36 -2 -44 30 -76 27 -27 43
-35 72 -35 29 0 45 8 72 35 32 32 35 40 30 77 -3 24 -15 51 -29 65 -26 26 -81
38 -113 24z"/>
<path fill="#d31144" d="M3705 2301 c-39 -17 -60 -51 -60 -98 0 -38 5 -49 33 -74 70 -63 172
-16 172 80 0 63 -86 118 -145 92z"/>
<path fill="#d31144" d="M4623 2295 c-39 -17 -53 -42 -53 -94 0 -28 7 -48 24 -68 21 -24 32
-28 76 -28 44 0 55 4 76 28 17 20 24 40 24 68 0 53 -14 78 -55 95 -42 17 -51
17 -92 -1z"/>
<path fill="#d31144" d="M5084 2291 c-60 -37 -66 -121 -12 -166 96 -81 225 52 141 145 -36 40
-86 48 -129 21z"/>
<path fill="#d31144" d="M5554 2294 c-97 -47 -56 -194 53 -194 96 0 133 140 50 190 -38 24
-62 25 -103 4z"/>
<path fill="#d31144" d="M6014 2291 c-63 -38 -64 -132 -3 -175 46 -31 119 -14 145 35 29 57
11 119 -41 144 -43 20 -63 19 -101 -4z"/>
<path fill="#d31144" d="M2499 2041 c-23 -23 -29 -38 -29 -71 0 -91 106 -135 171 -71 40 40
41 106 3 145 -39 38 -105 37 -145 -3z"/>
<path fill="#d31144" d="M2969 2041 c-64 -64 -20 -171 70 -171 92 0 139 109 75 174 -39 38
-105 37 -145 -3z"/>
<path fill="#d31144" d="M3454 2058 c-54 -26 -64 -116 -18 -162 39 -38 105 -37 145 3 63 63
20 172 -68 170 -21 0 -48 -5 -59 -11z"/>
<path fill="#d31144" d="M3906 2044 c-21 -21 -26 -36 -26 -74 0 -42 4 -52 31 -74 69 -59 169
-15 169 74 0 60 -41 100 -103 100 -35 0 -50 -6 -71 -26z"/>
<path fill="#d31144" d="M4371 2044 c-27 -22 -31 -32 -31 -74 0 -65 34 -100 97 -100 62 0 103
40 103 100 0 89 -100 133 -169 74z"/>
<path fill="#d31144" d="M4837 2050 c-48 -38 -44 -130 7 -165 11 -8 39 -15 62 -15 94 0 137
108 69 176 -32 31 -100 33 -138 4z"/>
<path fill="#d31144" d="M5296 2044 c-20 -21 -26 -36 -26 -71 0 -94 105 -139 171 -74 65 66
20 171 -74 171 -35 0 -50 -6 -71 -26z"/>
<path fill="#d31144" d="M5765 2046 c-28 -29 -40 -66 -31 -102 25 -100 177 -100 202 0 9 36
-3 73 -31 102 -18 18 -35 24 -70 24 -35 0 -52 -6 -70 -24z"/>
<path fill="#d31144" d="M6237 2046 c-49 -45 -42 -137 12 -166 33 -17 96 -12 124 10 48 38 44
130 -7 165 -33 24 -99 19 -129 -9z"/>
<path fill="#d31144" d="M2739 1811 c-22 -23 -29 -39 -29 -70 0 -110 144 -145 186 -46 43 103
-79 193 -157 116z"/>
<path fill="#d31144" d="M3215 1816 c-47 -47 -44 -121 7 -159 51 -38 124 -12 142 51 27 95
-82 175 -149 108z"/>
<path fill="#d31144" d="M3687 1829 c-24 -14 -47 -62 -47 -98 0 -20 11 -42 29 -63 25 -28 36
-33 76 -33 40 0 51 5 76 33 33 37 37 77 14 122 -8 16 -24 34 -34 40 -25 13
-91 13 -114 -1z"/>
<path fill="#d31144" d="M4135 1817 c-20 -16 -28 -35 -32 -68 -5 -41 -2 -50 25 -80 79 -88
217 2 172 112 -17 41 -47 59 -97 59 -29 0 -50 -7 -68 -23z"/>
<path fill="#d31144" d="M4599 1811 c-23 -24 -29 -38 -29 -73 0 -54 19 -83 65 -98 26 -9 44
-9 70 0 46 15 65 44 65 98 0 61 -41 102 -100 102 -33 0 -48 -6 -71 -29z"/>
<path fill="#d31144" d="M5068 1817 c-32 -30 -42 -59 -34 -101 10 -50 49 -81 103 -81 38 0 49
5 75 34 27 30 30 39 25 80 -7 60 -41 91 -101 91 -31 0 -50 -6 -68 -23z"/>
<path fill="#d31144" d="M5529 1811 c-23 -24 -29 -38 -29 -73 0 -54 19 -83 65 -98 27 -9 44
-9 70 0 45 15 68 49 68 102 0 89 -110 132 -174 69z"/>
<path fill="#d31144" d="M5997 1816 c-52 -48 -46 -124 13 -164 102 -69 218 72 131 159 -39 39
-105 41 -144 5z"/>
<path fill="#d31144" d="M2983 1591 c-52 -33 -58 -117 -11 -161 75 -69 195 5 167 104 -20 68
-95 95 -156 57z"/>
<path fill="#d31144" d="M3447 1590 c-38 -30 -52 -80 -33 -123 14 -35 58 -67 91 -67 54 0 105
51 105 105 0 85 -98 136 -163 85z"/>
<path fill="#d31144" d="M3934 1601 c-50 -22 -72 -111 -39 -157 39 -56 140 -53 170 6 37 72 4
148 -70 155 -22 3 -50 1 -61 -4z"/>
<path fill="#d31144" d="M4388 1594 c-35 -19 -48 -43 -48 -92 0 -51 30 -89 76 -98 69 -13 124
34 124 106 0 42 -15 67 -50 85 -36 19 -67 19 -102 -1z"/>
<path fill="#d31144" d="M4854 1599 c-28 -14 -54 -61 -54 -98 0 -20 10 -42 29 -63 25 -28 36
-33 75 -33 64 0 101 37 101 101 0 39 -5 50 -33 75 -34 31 -78 37 -118 18z"/>
<path fill="#d31144" d="M5324 1601 c-51 -22 -71 -105 -38 -156 34 -52 133 -53 169 -2 23 33
19 101 -8 132 -24 29 -86 42 -123 26z"/>
<path fill="#d31144" d="M5788 1595 c-36 -20 -48 -44 -48 -95 0 -30 6 -47 24 -65 69 -69 176
-27 176 69 0 60 -30 96 -85 102 -25 3 -50 -1 -67 -11z"/>
<path fill="#d31144" d="M6265 1601 c-65 -28 -82 -118 -32 -168 22 -22 37 -28 73 -28 39 0 50
5 75 33 39 43 39 90 2 132 -30 33 -82 46 -118 31z"/>
<path fill="#d31144" d="M3704 1371 c-32 -14 -64 -60 -64 -93 0 -36 24 -84 49 -98 28 -15 93
-12 117 5 49 34 55 122 11 163 -26 24 -83 35 -113 23z"/>
<path fill="#d31144" d="M4170 1369 c-39 -16 -60 -49 -60 -97 0 -90 99 -135 168 -77 89 75 0
218 -108 174z"/>
<path fill="#d31144" d="M4623 1365 c-39 -17 -53 -42 -53 -95 0 -89 100 -132 169 -74 26 22
31 33 31 71 0 57 -14 81 -55 99 -42 17 -51 17 -92 -1z"/>
<path fill="#d31144" d="M5100 1369 c-58 -24 -84 -82 -60 -139 42 -101 200 -70 200 39 0 72
-75 126 -140 100z"/>
<path fill="#d31144" d="M5560 1369 c-39 -16 -60 -49 -60 -97 0 -90 99 -135 168 -77 89 75 0
218 -108 174z"/>
<path fill="#d31144" d="M6030 1369 c-58 -24 -84 -82 -60 -139 42 -101 200 -70 200 39 0 73
-75 127 -140 100z"/>
<path fill="#d31144" d="M3907 1112 c-21 -22 -27 -38 -27 -74 0 -39 5 -50 31 -72 69 -59 169
-15 169 74 0 60 -41 100 -102 100 -35 0 -50 -6 -71 -28z"/>
<path fill="#d31144" d="M4371 1114 c-27 -22 -31 -32 -31 -74 0 -65 34 -100 97 -100 62 0 103
40 103 100 0 89 -100 133 -169 74z"/>
<path fill="#d31144" d="M4837 1120 c-48 -38 -44 -130 7 -165 34 -24 103 -19 131 9 68 69 27
176 -68 176 -29 0 -53 -7 -70 -20z"/>
<path fill="#d31144" d="M5307 1120 c-48 -38 -44 -130 7 -165 34 -24 103 -19 131 9 68 69 27
176 -68 176 -29 0 -53 -7 -70 -20z"/>
<path fill="#d31144" d="M5765 1116 c-28 -29 -40 -66 -31 -102 25 -100 177 -100 202 0 9 36
-3 73 -31 102 -18 18 -35 24 -70 24 -35 0 -52 -6 -70 -24z"/>
<path fill="#d31144" d="M4623 905 c-39 -17 -53 -42 -53 -95 0 -89 100 -132 169 -74 27 22 31
32 31 76 0 41 -5 54 -29 79 -33 32 -67 37 -118 14z"/>
<path fill="#d31144" d="M5079 905 c-54 -29 -63 -119 -15 -164 66 -62 176 -17 176 74 0 82
-87 130 -161 90z"/>
<path fill="#d31144" d="M5529 891 c-23 -23 -29 -38 -29 -71 0 -23 5 -50 10 -61 13 -23 61
-49 92 -49 40 0 86 36 97 76 29 104 -94 180 -170 105z"/>
</g>
</svg>
